# xmcd
#
# Track frame offsets: 
#        182
#        10202
#        19315
#        28647
#        37327
#        50382
#        58652
#        68327
#        80082
#        91095
#
# Disc length: 1343 seconds
#
# Revision: 0
# Processed by: cddbd v1.5.2PL0 Copyright (c) Steve Scherf et al.
# Submitted via: ExactAudioCopyFreeDBPlugin 1.0
#
DISCID=7a053d0a
DTITLE=Hank Smith - Just Plain Country
DYEAR=1900
DGENRE=Country
TTITLE0=Baby Sittin' With The Blues
TTITLE1=If My Heart Could Speak
TTITLE2=Wasted Years
TTITLE3=Give Me A Country Song
TTITLE4=Good-Bye Waltz
TTITLE5=Twenty Five Years
TTITLE6=I Still Miss You
TTITLE7=My Wish To You
TTITLE8=If You Don't Laugh, I Promise I Won't Cry
TTITLE9=Everybody's Going To The Country
EXTD=
EXTT0=
EXTT1=
EXTT2=
EXTT3=
EXTT4=
EXTT5=
EXTT6=
EXTT7=
EXTT8=
EXTT9=
PLAYORDER=
